<mxfile host="app.diagrams.net" modified="2024-02-29T02:27:13.743Z" agent="Mozilla/5.0 (Windows NT 10.0; Win64; x64) AppleWebKit/537.36 (KHTML, like Gecko) Chrome/121.0.0.0 Safari/537.36" etag="ha-Z0q4YGX9AyAS6DsSG" version="23.1.8" type="github">
  <diagram id="C5RBs43oDa-KdzZeNtuy" name="Page-1">
    <mxGraphModel dx="2333" dy="1238" grid="1" gridSize="10" guides="1" tooltips="1" connect="1" arrows="1" fold="1" page="1" pageScale="1" pageWidth="1200" pageHeight="1600" math="0" shadow="0">
      <root>
        <mxCell id="WIyWlLk6GJQsqaUBKTNV-0" />
        <mxCell id="WIyWlLk6GJQsqaUBKTNV-1" parent="WIyWlLk6GJQsqaUBKTNV-0" />
        <mxCell id="07CyPVwS7ZV6MGK7Blt4-1" value="" style="edgeStyle=orthogonalEdgeStyle;rounded=0;orthogonalLoop=1;jettySize=auto;html=1;" parent="WIyWlLk6GJQsqaUBKTNV-1" source="WIyWlLk6GJQsqaUBKTNV-3" target="07CyPVwS7ZV6MGK7Blt4-0" edge="1">
          <mxGeometry relative="1" as="geometry" />
        </mxCell>
        <mxCell id="WIyWlLk6GJQsqaUBKTNV-3" value="Extract.py" style="rounded=1;whiteSpace=wrap;html=1;fontSize=12;glass=0;strokeWidth=1;shadow=0;" parent="WIyWlLk6GJQsqaUBKTNV-1" vertex="1">
          <mxGeometry x="40" y="520" width="80" height="40" as="geometry" />
        </mxCell>
        <mxCell id="07CyPVwS7ZV6MGK7Blt4-3" value="" style="edgeStyle=orthogonalEdgeStyle;rounded=0;orthogonalLoop=1;jettySize=auto;html=1;" parent="WIyWlLk6GJQsqaUBKTNV-1" source="07CyPVwS7ZV6MGK7Blt4-0" target="07CyPVwS7ZV6MGK7Blt4-2" edge="1">
          <mxGeometry relative="1" as="geometry" />
        </mxCell>
        <mxCell id="07CyPVwS7ZV6MGK7Blt4-0" value="raw_data.csv" style="ellipse;whiteSpace=wrap;html=1;rounded=1;glass=0;strokeWidth=1;shadow=0;" parent="WIyWlLk6GJQsqaUBKTNV-1" vertex="1">
          <mxGeometry x="160" y="520" width="120" height="40" as="geometry" />
        </mxCell>
        <mxCell id="07CyPVwS7ZV6MGK7Blt4-6" value="" style="edgeStyle=orthogonalEdgeStyle;rounded=0;orthogonalLoop=1;jettySize=auto;html=1;entryX=0;entryY=0.5;entryDx=0;entryDy=0;" parent="WIyWlLk6GJQsqaUBKTNV-1" target="07CyPVwS7ZV6MGK7Blt4-7" edge="1">
          <mxGeometry relative="1" as="geometry">
            <mxPoint x="440" y="540" as="sourcePoint" />
            <mxPoint x="520" y="540" as="targetPoint" />
          </mxGeometry>
        </mxCell>
        <mxCell id="07CyPVwS7ZV6MGK7Blt4-2" value="Data Transformation.py" style="rounded=1;whiteSpace=wrap;html=1;glass=0;strokeWidth=1;shadow=0;" parent="WIyWlLk6GJQsqaUBKTNV-1" vertex="1">
          <mxGeometry x="320" y="520" width="120" height="40" as="geometry" />
        </mxCell>
        <mxCell id="07CyPVwS7ZV6MGK7Blt4-14" style="edgeStyle=orthogonalEdgeStyle;rounded=0;orthogonalLoop=1;jettySize=auto;html=1;entryX=0;entryY=0.5;entryDx=0;entryDy=0;" parent="WIyWlLk6GJQsqaUBKTNV-1" source="-1pXZJCSbfHPmCtMx0VH-5" target="07CyPVwS7ZV6MGK7Blt4-11" edge="1">
          <mxGeometry relative="1" as="geometry" />
        </mxCell>
        <mxCell id="07CyPVwS7ZV6MGK7Blt4-16" style="edgeStyle=orthogonalEdgeStyle;rounded=0;orthogonalLoop=1;jettySize=auto;html=1;exitX=1;exitY=0.5;exitDx=0;exitDy=0;entryX=0;entryY=0.5;entryDx=0;entryDy=0;" parent="WIyWlLk6GJQsqaUBKTNV-1" source="07CyPVwS7ZV6MGK7Blt4-7" target="07CyPVwS7ZV6MGK7Blt4-15" edge="1">
          <mxGeometry relative="1" as="geometry" />
        </mxCell>
        <mxCell id="07CyPVwS7ZV6MGK7Blt4-24" style="edgeStyle=orthogonalEdgeStyle;rounded=0;orthogonalLoop=1;jettySize=auto;html=1;entryX=0.5;entryY=0;entryDx=0;entryDy=0;" parent="WIyWlLk6GJQsqaUBKTNV-1" source="07CyPVwS7ZV6MGK7Blt4-7" target="07CyPVwS7ZV6MGK7Blt4-25" edge="1">
          <mxGeometry relative="1" as="geometry">
            <mxPoint x="540" y="800" as="targetPoint" />
          </mxGeometry>
        </mxCell>
        <mxCell id="07CyPVwS7ZV6MGK7Blt4-7" value="clean_data.csv" style="ellipse;whiteSpace=wrap;html=1;rounded=1;glass=0;strokeWidth=1;shadow=0;" parent="WIyWlLk6GJQsqaUBKTNV-1" vertex="1">
          <mxGeometry x="480" y="520" width="120" height="40" as="geometry" />
        </mxCell>
        <mxCell id="07CyPVwS7ZV6MGK7Blt4-9" value="Statistical Analysis.ipynp" style="rounded=1;whiteSpace=wrap;html=1;fontSize=12;glass=0;strokeWidth=1;shadow=0;" parent="WIyWlLk6GJQsqaUBKTNV-1" vertex="1">
          <mxGeometry x="800" y="120" width="120" height="40" as="geometry" />
        </mxCell>
        <mxCell id="07CyPVwS7ZV6MGK7Blt4-32" style="edgeStyle=orthogonalEdgeStyle;rounded=0;orthogonalLoop=1;jettySize=auto;html=1;" parent="WIyWlLk6GJQsqaUBKTNV-1" source="07CyPVwS7ZV6MGK7Blt4-11" target="07CyPVwS7ZV6MGK7Blt4-31" edge="1">
          <mxGeometry relative="1" as="geometry" />
        </mxCell>
        <mxCell id="07CyPVwS7ZV6MGK7Blt4-11" value="Sentiment Analysis" style="rounded=1;whiteSpace=wrap;html=1;fontSize=12;glass=0;strokeWidth=1;shadow=0;" parent="WIyWlLk6GJQsqaUBKTNV-1" vertex="1">
          <mxGeometry x="800" y="520" width="80" height="40" as="geometry" />
        </mxCell>
        <mxCell id="07CyPVwS7ZV6MGK7Blt4-18" value="" style="edgeStyle=orthogonalEdgeStyle;rounded=0;orthogonalLoop=1;jettySize=auto;html=1;entryX=0;entryY=0.5;entryDx=0;entryDy=0;" parent="WIyWlLk6GJQsqaUBKTNV-1" source="07CyPVwS7ZV6MGK7Blt4-15" target="07CyPVwS7ZV6MGK7Blt4-17" edge="1">
          <mxGeometry relative="1" as="geometry" />
        </mxCell>
        <mxCell id="07CyPVwS7ZV6MGK7Blt4-21" style="edgeStyle=orthogonalEdgeStyle;rounded=0;orthogonalLoop=1;jettySize=auto;html=1;exitX=1;exitY=0.5;exitDx=0;exitDy=0;entryX=0;entryY=0.5;entryDx=0;entryDy=0;" parent="WIyWlLk6GJQsqaUBKTNV-1" source="07CyPVwS7ZV6MGK7Blt4-15" target="07CyPVwS7ZV6MGK7Blt4-20" edge="1">
          <mxGeometry relative="1" as="geometry" />
        </mxCell>
        <mxCell id="07CyPVwS7ZV6MGK7Blt4-15" value="Modelling" style="rounded=1;whiteSpace=wrap;html=1;fontSize=12;glass=0;strokeWidth=1;shadow=0;" parent="WIyWlLk6GJQsqaUBKTNV-1" vertex="1">
          <mxGeometry x="800" y="600" width="80" height="40" as="geometry" />
        </mxCell>
        <mxCell id="07CyPVwS7ZV6MGK7Blt4-38" style="edgeStyle=orthogonalEdgeStyle;rounded=0;orthogonalLoop=1;jettySize=auto;html=1;exitX=1;exitY=0.5;exitDx=0;exitDy=0;" parent="WIyWlLk6GJQsqaUBKTNV-1" source="07CyPVwS7ZV6MGK7Blt4-17" target="07CyPVwS7ZV6MGK7Blt4-37" edge="1">
          <mxGeometry relative="1" as="geometry" />
        </mxCell>
        <mxCell id="07CyPVwS7ZV6MGK7Blt4-17" value="EDA (After)" style="rounded=1;whiteSpace=wrap;html=1;fontSize=12;glass=0;strokeWidth=1;shadow=0;" parent="WIyWlLk6GJQsqaUBKTNV-1" vertex="1">
          <mxGeometry x="920" y="680" width="120" height="40" as="geometry" />
        </mxCell>
        <mxCell id="07CyPVwS7ZV6MGK7Blt4-22" style="edgeStyle=orthogonalEdgeStyle;rounded=0;orthogonalLoop=1;jettySize=auto;html=1;exitX=0.5;exitY=1;exitDx=0;exitDy=0;" parent="WIyWlLk6GJQsqaUBKTNV-1" source="07CyPVwS7ZV6MGK7Blt4-20" target="07CyPVwS7ZV6MGK7Blt4-17" edge="1">
          <mxGeometry relative="1" as="geometry" />
        </mxCell>
        <mxCell id="07CyPVwS7ZV6MGK7Blt4-34" style="edgeStyle=orthogonalEdgeStyle;rounded=0;orthogonalLoop=1;jettySize=auto;html=1;" parent="WIyWlLk6GJQsqaUBKTNV-1" source="07CyPVwS7ZV6MGK7Blt4-20" target="07CyPVwS7ZV6MGK7Blt4-33" edge="1">
          <mxGeometry relative="1" as="geometry" />
        </mxCell>
        <mxCell id="07CyPVwS7ZV6MGK7Blt4-20" value="Weight and Result" style="rounded=1;whiteSpace=wrap;html=1;" parent="WIyWlLk6GJQsqaUBKTNV-1" vertex="1">
          <mxGeometry x="920" y="600" width="120" height="40" as="geometry" />
        </mxCell>
        <mxCell id="07CyPVwS7ZV6MGK7Blt4-36" style="edgeStyle=orthogonalEdgeStyle;rounded=0;orthogonalLoop=1;jettySize=auto;html=1;entryX=0;entryY=0.5;entryDx=0;entryDy=0;" parent="WIyWlLk6GJQsqaUBKTNV-1" source="07CyPVwS7ZV6MGK7Blt4-25" target="07CyPVwS7ZV6MGK7Blt4-35" edge="1">
          <mxGeometry relative="1" as="geometry" />
        </mxCell>
        <mxCell id="07CyPVwS7ZV6MGK7Blt4-25" value="Dashboards" style="rounded=1;whiteSpace=wrap;html=1;" parent="WIyWlLk6GJQsqaUBKTNV-1" vertex="1">
          <mxGeometry x="480" y="720" width="120" height="40" as="geometry" />
        </mxCell>
        <mxCell id="07CyPVwS7ZV6MGK7Blt4-29" value="INSIGHTS" style="text;html=1;align=center;verticalAlign=middle;whiteSpace=wrap;rounded=0;" parent="WIyWlLk6GJQsqaUBKTNV-1" vertex="1">
          <mxGeometry x="1190" y="40" width="80" height="40" as="geometry" />
        </mxCell>
        <mxCell id="07CyPVwS7ZV6MGK7Blt4-31" value="INSIGHTS" style="text;html=1;align=center;verticalAlign=middle;whiteSpace=wrap;rounded=0;" parent="WIyWlLk6GJQsqaUBKTNV-1" vertex="1">
          <mxGeometry x="920" y="520" width="80" height="40" as="geometry" />
        </mxCell>
        <mxCell id="07CyPVwS7ZV6MGK7Blt4-33" value="INSIGHTS" style="text;html=1;align=center;verticalAlign=middle;whiteSpace=wrap;rounded=0;" parent="WIyWlLk6GJQsqaUBKTNV-1" vertex="1">
          <mxGeometry x="1080" y="600" width="80" height="40" as="geometry" />
        </mxCell>
        <mxCell id="07CyPVwS7ZV6MGK7Blt4-35" value="INSIGHTS" style="text;html=1;align=center;verticalAlign=middle;whiteSpace=wrap;rounded=0;" parent="WIyWlLk6GJQsqaUBKTNV-1" vertex="1">
          <mxGeometry x="640" y="720" width="80" height="40" as="geometry" />
        </mxCell>
        <mxCell id="07CyPVwS7ZV6MGK7Blt4-37" value="INSIGHTS" style="text;html=1;align=center;verticalAlign=middle;whiteSpace=wrap;rounded=0;" parent="WIyWlLk6GJQsqaUBKTNV-1" vertex="1">
          <mxGeometry x="1080" y="680" width="80" height="40" as="geometry" />
        </mxCell>
        <mxCell id="07CyPVwS7ZV6MGK7Blt4-39" value="Data Preparation.py" style="rounded=1;whiteSpace=wrap;html=1;glass=0;strokeWidth=1;shadow=0;" parent="WIyWlLk6GJQsqaUBKTNV-1" vertex="1">
          <mxGeometry x="710" y="1080" width="120" height="40" as="geometry" />
        </mxCell>
        <mxCell id="07CyPVwS7ZV6MGK7Blt4-48" style="edgeStyle=orthogonalEdgeStyle;rounded=0;orthogonalLoop=1;jettySize=auto;html=1;entryX=0;entryY=0.5;entryDx=0;entryDy=0;" parent="WIyWlLk6GJQsqaUBKTNV-1" source="07CyPVwS7ZV6MGK7Blt4-40" target="07CyPVwS7ZV6MGK7Blt4-39" edge="1">
          <mxGeometry relative="1" as="geometry" />
        </mxCell>
        <mxCell id="07CyPVwS7ZV6MGK7Blt4-40" value="Data Cleaning" style="rounded=1;whiteSpace=wrap;html=1;glass=0;strokeWidth=1;shadow=0;" parent="WIyWlLk6GJQsqaUBKTNV-1" vertex="1">
          <mxGeometry x="510" y="960" width="120" height="40" as="geometry" />
        </mxCell>
        <mxCell id="07CyPVwS7ZV6MGK7Blt4-46" style="edgeStyle=orthogonalEdgeStyle;rounded=0;orthogonalLoop=1;jettySize=auto;html=1;entryX=0;entryY=0.5;entryDx=0;entryDy=0;" parent="WIyWlLk6GJQsqaUBKTNV-1" source="07CyPVwS7ZV6MGK7Blt4-43" target="07CyPVwS7ZV6MGK7Blt4-39" edge="1">
          <mxGeometry relative="1" as="geometry">
            <mxPoint x="710" y="1100" as="targetPoint" />
          </mxGeometry>
        </mxCell>
        <mxCell id="07CyPVwS7ZV6MGK7Blt4-43" value="Transformation" style="rounded=1;whiteSpace=wrap;html=1;glass=0;strokeWidth=1;shadow=0;" parent="WIyWlLk6GJQsqaUBKTNV-1" vertex="1">
          <mxGeometry x="510" y="1080" width="120" height="40" as="geometry" />
        </mxCell>
        <mxCell id="07CyPVwS7ZV6MGK7Blt4-45" style="edgeStyle=orthogonalEdgeStyle;rounded=0;orthogonalLoop=1;jettySize=auto;html=1;entryX=0;entryY=0.5;entryDx=0;entryDy=0;" parent="WIyWlLk6GJQsqaUBKTNV-1" source="07CyPVwS7ZV6MGK7Blt4-44" target="07CyPVwS7ZV6MGK7Blt4-39" edge="1">
          <mxGeometry relative="1" as="geometry" />
        </mxCell>
        <mxCell id="07CyPVwS7ZV6MGK7Blt4-44" value="Feature Engineering" style="rounded=1;whiteSpace=wrap;html=1;glass=0;strokeWidth=1;shadow=0;" parent="WIyWlLk6GJQsqaUBKTNV-1" vertex="1">
          <mxGeometry x="500" y="1200" width="120" height="40" as="geometry" />
        </mxCell>
        <mxCell id="07CyPVwS7ZV6MGK7Blt4-50" style="edgeStyle=orthogonalEdgeStyle;rounded=0;orthogonalLoop=1;jettySize=auto;html=1;entryX=0;entryY=0.5;entryDx=0;entryDy=0;" parent="WIyWlLk6GJQsqaUBKTNV-1" source="07CyPVwS7ZV6MGK7Blt4-49" target="07CyPVwS7ZV6MGK7Blt4-40" edge="1">
          <mxGeometry relative="1" as="geometry" />
        </mxCell>
        <mxCell id="07CyPVwS7ZV6MGK7Blt4-49" value="Format column" style="rounded=1;whiteSpace=wrap;html=1;glass=0;strokeWidth=1;shadow=0;" parent="WIyWlLk6GJQsqaUBKTNV-1" vertex="1">
          <mxGeometry x="350" y="800" width="120" height="40" as="geometry" />
        </mxCell>
        <mxCell id="07CyPVwS7ZV6MGK7Blt4-54" value="" style="edgeStyle=orthogonalEdgeStyle;rounded=0;orthogonalLoop=1;jettySize=auto;html=1;entryX=0;entryY=0.5;entryDx=0;entryDy=0;" parent="WIyWlLk6GJQsqaUBKTNV-1" source="07CyPVwS7ZV6MGK7Blt4-53" target="07CyPVwS7ZV6MGK7Blt4-40" edge="1">
          <mxGeometry relative="1" as="geometry" />
        </mxCell>
        <mxCell id="07CyPVwS7ZV6MGK7Blt4-53" value="Outlier Handling" style="rounded=1;whiteSpace=wrap;html=1;glass=0;strokeWidth=1;shadow=0;" parent="WIyWlLk6GJQsqaUBKTNV-1" vertex="1">
          <mxGeometry x="350" y="880" width="120" height="40" as="geometry" />
        </mxCell>
        <mxCell id="07CyPVwS7ZV6MGK7Blt4-56" value="" style="edgeStyle=orthogonalEdgeStyle;rounded=0;orthogonalLoop=1;jettySize=auto;html=1;" parent="WIyWlLk6GJQsqaUBKTNV-1" source="07CyPVwS7ZV6MGK7Blt4-55" target="07CyPVwS7ZV6MGK7Blt4-40" edge="1">
          <mxGeometry relative="1" as="geometry" />
        </mxCell>
        <mxCell id="07CyPVwS7ZV6MGK7Blt4-55" value="Duplicate Handling" style="rounded=1;whiteSpace=wrap;html=1;glass=0;strokeWidth=1;shadow=0;" parent="WIyWlLk6GJQsqaUBKTNV-1" vertex="1">
          <mxGeometry x="350" y="960" width="120" height="40" as="geometry" />
        </mxCell>
        <mxCell id="-1pXZJCSbfHPmCtMx0VH-6" value="" style="edgeStyle=orthogonalEdgeStyle;rounded=0;orthogonalLoop=1;jettySize=auto;html=1;entryX=0;entryY=0.5;entryDx=0;entryDy=0;" edge="1" parent="WIyWlLk6GJQsqaUBKTNV-1" source="07CyPVwS7ZV6MGK7Blt4-7" target="-1pXZJCSbfHPmCtMx0VH-5">
          <mxGeometry relative="1" as="geometry">
            <mxPoint x="600" y="540" as="sourcePoint" />
            <mxPoint x="800" y="540" as="targetPoint" />
          </mxGeometry>
        </mxCell>
        <mxCell id="-1pXZJCSbfHPmCtMx0VH-5" value="Null Handling" style="rounded=1;whiteSpace=wrap;html=1;glass=0;strokeWidth=1;shadow=0;" vertex="1" parent="WIyWlLk6GJQsqaUBKTNV-1">
          <mxGeometry x="640" y="520" width="120" height="40" as="geometry" />
        </mxCell>
        <mxCell id="-1pXZJCSbfHPmCtMx0VH-8" value="" style="edgeStyle=orthogonalEdgeStyle;rounded=0;orthogonalLoop=1;jettySize=auto;html=1;entryX=0;entryY=0.5;entryDx=0;entryDy=0;" edge="1" parent="WIyWlLk6GJQsqaUBKTNV-1" source="07CyPVwS7ZV6MGK7Blt4-7" target="-1pXZJCSbfHPmCtMx0VH-7">
          <mxGeometry relative="1" as="geometry">
            <mxPoint x="600" y="540" as="sourcePoint" />
            <mxPoint x="760" y="460" as="targetPoint" />
            <Array as="points">
              <mxPoint x="620" y="540" />
              <mxPoint x="620" y="140" />
            </Array>
          </mxGeometry>
        </mxCell>
        <mxCell id="-1pXZJCSbfHPmCtMx0VH-10" value="" style="edgeStyle=orthogonalEdgeStyle;rounded=0;orthogonalLoop=1;jettySize=auto;html=1;" edge="1" parent="WIyWlLk6GJQsqaUBKTNV-1" source="-1pXZJCSbfHPmCtMx0VH-7" target="07CyPVwS7ZV6MGK7Blt4-9">
          <mxGeometry relative="1" as="geometry" />
        </mxCell>
        <mxCell id="-1pXZJCSbfHPmCtMx0VH-7" value="Null Handling" style="rounded=1;whiteSpace=wrap;html=1;glass=0;strokeWidth=1;shadow=0;" vertex="1" parent="WIyWlLk6GJQsqaUBKTNV-1">
          <mxGeometry x="640" y="120" width="120" height="40" as="geometry" />
        </mxCell>
        <mxCell id="-1pXZJCSbfHPmCtMx0VH-12" value="EDA (Before)" style="rounded=1;whiteSpace=wrap;html=1;fontSize=12;glass=0;strokeWidth=1;shadow=0;" vertex="1" parent="WIyWlLk6GJQsqaUBKTNV-1">
          <mxGeometry x="800" y="400" width="120" height="40" as="geometry" />
        </mxCell>
        <mxCell id="-1pXZJCSbfHPmCtMx0VH-13" value="" style="edgeStyle=orthogonalEdgeStyle;rounded=0;orthogonalLoop=1;jettySize=auto;html=1;" edge="1" parent="WIyWlLk6GJQsqaUBKTNV-1" source="-1pXZJCSbfHPmCtMx0VH-14" target="-1pXZJCSbfHPmCtMx0VH-12">
          <mxGeometry relative="1" as="geometry" />
        </mxCell>
        <mxCell id="-1pXZJCSbfHPmCtMx0VH-14" value="Null Handling" style="rounded=1;whiteSpace=wrap;html=1;glass=0;strokeWidth=1;shadow=0;" vertex="1" parent="WIyWlLk6GJQsqaUBKTNV-1">
          <mxGeometry x="640" y="400" width="120" height="40" as="geometry" />
        </mxCell>
        <mxCell id="-1pXZJCSbfHPmCtMx0VH-16" value="" style="endArrow=classic;html=1;rounded=0;entryX=0;entryY=0.5;entryDx=0;entryDy=0;" edge="1" parent="WIyWlLk6GJQsqaUBKTNV-1" target="-1pXZJCSbfHPmCtMx0VH-14">
          <mxGeometry width="50" height="50" relative="1" as="geometry">
            <mxPoint x="620" y="420" as="sourcePoint" />
            <mxPoint x="670" y="370" as="targetPoint" />
          </mxGeometry>
        </mxCell>
        <mxCell id="-1pXZJCSbfHPmCtMx0VH-17" value="Service Analysis" style="rounded=1;whiteSpace=wrap;html=1;" vertex="1" parent="WIyWlLk6GJQsqaUBKTNV-1">
          <mxGeometry x="960" y="80" width="120" height="40" as="geometry" />
        </mxCell>
        <mxCell id="-1pXZJCSbfHPmCtMx0VH-18" value="Score Analysis" style="rounded=1;whiteSpace=wrap;html=1;" vertex="1" parent="WIyWlLk6GJQsqaUBKTNV-1">
          <mxGeometry x="960" y="160" width="120" height="40" as="geometry" />
        </mxCell>
        <mxCell id="-1pXZJCSbfHPmCtMx0VH-19" value="Time Series Analysis" style="rounded=1;whiteSpace=wrap;html=1;" vertex="1" parent="WIyWlLk6GJQsqaUBKTNV-1">
          <mxGeometry x="960" y="240" width="120" height="40" as="geometry" />
        </mxCell>
        <mxCell id="-1pXZJCSbfHPmCtMx0VH-20" value="General Analysis" style="rounded=1;whiteSpace=wrap;html=1;" vertex="1" parent="WIyWlLk6GJQsqaUBKTNV-1">
          <mxGeometry x="960" width="120" height="40" as="geometry" />
        </mxCell>
      </root>
    </mxGraphModel>
  </diagram>
</mxfile>
